<svg width="54" height="54" viewBox="0 0 54 54" fill="none" xmlns="http://www.w3.org/2000/svg">
<path d="M36.245 27.8349C36.7609 27.8349 37.1793 27.4166 37.1793 26.9007C37.1793 26.3848 36.7609 25.9665 36.245 25.9665C35.7291 25.9665 35.3108 26.3848 35.3108 26.9007C35.3108 27.4166 35.7291 27.8349 36.245 27.8349Z" fill="#C54EFD" stroke="#C54EFD" stroke-width="1.6875" stroke-linecap="round" stroke-linejoin="round"/>
<path d="M26.9045 27.8349C27.4203 27.8349 27.8387 27.4166 27.8387 26.9007C27.8387 26.3848 27.4203 25.9665 26.9045 25.9665C26.3886 25.9665 25.9702 26.3848 25.9702 26.9007C25.9702 27.4166 26.3886 27.8349 26.9045 27.8349Z" fill="#C54EFD" stroke="#C54EFD" stroke-width="1.6875" stroke-linecap="round" stroke-linejoin="round"/>
<path d="M17.5606 27.8349C18.0765 27.8349 18.4948 27.4166 18.4948 26.9007C18.4948 26.3848 18.0765 25.9665 17.5606 25.9665C17.0446 25.9665 16.6263 26.3848 16.6263 26.9007C16.6263 27.4166 17.0446 27.8349 17.5606 27.8349Z" fill="#C54EFD" stroke="#C54EFD" stroke-width="1.6875" stroke-linecap="round" stroke-linejoin="round"/>
<path d="M26.9033 45.5868C37.2225 45.5868 45.5881 37.2212 45.5881 26.902C45.5881 16.5827 37.2225 8.21722 26.9033 8.21722C16.584 8.21722 8.21851 16.5827 8.21851 26.902C8.21851 30.3053 9.1284 33.4961 10.7182 36.2444L9.15274 44.6525L17.5609 43.0871C20.3092 44.6768 23.5 45.5868 26.9033 45.5868Z" stroke="#C54EFD" stroke-width="1.6875" stroke-linecap="round" stroke-linejoin="round"/>
</svg>
