<svg width="54" height="54" viewBox="0 0 54 54" fill="none" xmlns="http://www.w3.org/2000/svg">
<path d="M44.1188 34.231C42.9363 37.0274 41.0868 39.4915 38.732 41.408C36.3772 43.3245 33.5888 44.6349 30.6106 45.2248C27.6323 45.8147 24.5549 45.666 21.6474 44.7917C18.7399 43.9175 16.0908 42.3444 13.9317 40.2098C11.7727 38.0752 10.1693 35.4443 9.26197 32.5469C8.35459 29.6496 8.17078 26.5741 8.7266 23.5893C9.28241 20.6045 10.5609 17.8013 12.4504 15.4248C14.3399 13.0483 16.7827 11.1708 19.5654 9.95645" stroke="#1DC5F8" stroke-width="2.34783" stroke-linecap="round" stroke-linejoin="round"/>
<path d="M45.5784 27.0009C45.5784 24.5601 45.0977 22.1431 44.1636 19.888C43.2295 17.6329 41.8604 15.5839 40.1344 13.858C38.4085 12.132 36.3595 10.7629 34.1044 9.82882C31.8493 8.89474 29.4323 8.41397 26.9915 8.41397V27.0009H45.5784Z" stroke="#1DC5F8" stroke-width="2.34783" stroke-linecap="round" stroke-linejoin="round"/>
</svg>
